{
  "asset": {
    "version": "2.0",
    "generator": "THREE.GLTFExporter r169"
  },
  "scenes": [
    {
      "name": "Scene",
      "nodes": [
        1
      ]
    }
  ],
  "scene": 0,
  "nodes": [
    {
      "rotation": [
        0,
        0.7071068286895752,
        -0.7071068286895752,
        5.76011558450773e-8
      ],
      "translation": [
        42.782894134521484,
        -0.027395371347665787,
        30.254785537719727
      ],
      "scale": [
        0.5906358957290649,
        0.5906358957290649,
        0.5906358957290649
      ],
      "name": "Tram_1",
      "extras": {
        "name": "Tram_1"
      },
      "mesh": 0
    },
    {
      "translation": [
        -43.785249388466255,
        0,
        -29.873213779577128
      ],
      "name": "tramwaj.glb",
      "children": [
        0
      ]
    }
  ],
  "bufferViews": [
    {
      "buffer": 0,
      "byteOffset": 0,
      "byteLength": 23328,
      "target": 34962,
      "byteStride": 12
    },
    {
      "buffer": 0,
      "byteOffset": 23328,
      "byteLength": 23328,
      "target": 34962,
      "byteStride": 12
    },
    {
      "buffer": 0,
      "byteOffset": 46656,
      "byteLength": 15552,
      "target": 34962,
      "byteStride": 8
    },
    {
      "buffer": 0,
      "byteOffset": 62208,
      "byteLength": 8400,
      "target": 34963
    },
    {
      "buffer": 0,
      "byteOffset": 70608,
      "byteLength": 800
    },
    {
      "buffer": 0,
      "byteOffset": 71408,
      "byteLength": 2400
    }
  ],
  "buffers": [
    {
      "byteLength": 73808,
      "uri": "data:application/octet-stream;base64,"
    }
  ],
  "accessors": [
    {
      "bufferView": 0,
      "componentType": 5126,
      "count": 1944,
      "max": [
        21.450122833251953,
        1.4589372873306274,
        1.5552693304204185e-18
      ],
      "min": [
        -21.450122833251953,
        -1.4589372873306274,
        -7.041879177093506
      ],
      "type": "VEC3"
    },
    {
      "bufferView": 1,
      "componentType": 5126,
      "count": 1944,
      "max": [
        1,
        1,
        1
      ],
      "min": [
        -1,
        -1,
        -1
      ],
      "type": "VEC3"
    },
    {
      "bufferView": 2,
      "componentType": 5126,
      "count": 1944,
      "max": [
        0.6359694004058838,
        0.3056783080101013
      ],
      "min": [
        0.03472495079040527,
        0.015951931476593018
      ],
      "type": "VEC2"
    },
    {
      "bufferView": 3,
      "componentType": 5123,
      "count": 4200,
      "max": [
        1943
      ],
      "min": [
        0
      ],
      "type": "SCALAR"
    },
    {
      "bufferView": 4,
      "componentType": 5126,
      "count": 200,
      "max": [
        6.666666507720947
      ],
      "min": [
        0.03333333507180214
      ],
      "type": "SCALAR"
    },
    {
      "bufferView": 5,
      "componentType": 5126,
      "count": 200,
      "max": [
        42.782894134521484,
        -0.027395371347665787,
        30.254785537719727
      ],
      "min": [
        -35.310672760009766,
        -0.027396302670240402,
        30.254779815673828
      ],
      "type": "VEC3"
    }
  ],
  "materials": [
    {
      "pbrMetallicRoughness": {
        "metallicFactor": 0,
        "roughnessFactor": 0.5527864098548889,
        "baseColorTexture": {
          "index": 0,
          "texCoord": 0,
          "extensions": {
            "KHR_texture_transform": {
              "offset": [
                0,
                -1
              ]
            }
          }
        }
      },
      "doubleSided": true,
      "name": "Mat"
    }
  ],
  "textures": [
    {
      "sampler": 0,
      "source": 0,
      "name": "tex"
    }
  ],
  "samplers": [
    {
      "magFilter": 9729,
      "minFilter": 9987,
      "wrapS": 10497,
      "wrapT": 10497
    }
  ],
  "images": [
    {
      "mimeType": "image/png",
      "uri": "data:image/png;base64,"
    }
  ],
  "meshes": [
    {
      "primitives": [
        {
          "mode": 4,
          "attributes": {
            "POSITION": 0,
            "NORMAL": 1,
            "TEXCOORD_0": 2
          },
          "indices": 3,
          "material": 0
        }
      ]
    }
  ],
  "animations": [
    {
      "name": "Tram_1Action",
      "samplers": [
        {
          "input": 4,
          "output": 5,
          "interpolation": "LINEAR"
        }
      ],
      "channels": [
        {
          "sampler": 0,
          "target": {
            "node": 0,
            "path": "translation"
          }
        }
      ]
    }
  ],
  "extensionsUsed": [
    "KHR_texture_transform"
  ]
}