{
  "accessors": [
    {
      "bufferView": 2,
      "componentType": 5126,
      "count": 228,
      "max": [
        0.08602714538574219,
        2.2375948429107666,
        0.10581480711698532
      ],
      "min": [
        -0.1524917185306549,
        -1.4014506340026855,
        -0.12592637538909912
      ],
      "type": "VEC3"
    },
    {
      "bufferView": 2,
      "byteOffset": 2736,
      "componentType": 5126,
      "count": 228,
      "max": [
        0.9934660196304321,
        0.7191824316978455,
        0.9982897639274597
      ],
      "min": [
        -0.9948246479034424,
        -0.9874066710472107,
        -0.9977028965950012
      ],
      "type": "VEC3"
    },
    {
      "bufferView": 1,
      "componentType": 5126,
      "count": 228,
      "max": [
        0.9906079769134521,
        0.9814643859863281
      ],
      "min": [
        0.0018352866172790527,
        0.0018352270126342773
      ],
      "type": "VEC2"
    },
    {
      "bufferView": 1,
      "byteOffset": 1824,
      "componentType": 5126,
      "count": 228,
      "max": [
        0.9906079769134521,
        0.9814643859863281
      ],
      "min": [
        0.0018352866172790527,
        0.0018352270126342773
      ],
      "type": "VEC2"
    },
    {
      "bufferView": 1,
      "byteOffset": 3648,
      "componentType": 5126,
      "count": 228,
      "max": [
        0.9906079769134521,
        0.9814643859863281
      ],
      "min": [
        0.0018352866172790527,
        0.0018352270126342773
      ],
      "type": "VEC2"
    },
    {
      "bufferView": 1,
      "byteOffset": 5472,
      "componentType": 5126,
      "count": 228,
      "max": [
        0.9906079769134521,
        0.9814643859863281
      ],
      "min": [
        0.0018352866172790527,
        0.0018352270126342773
      ],
      "type": "VEC2"
    },
    {
      "bufferView": 0,
      "componentType": 5125,
      "count": 762,
      "type": "SCALAR"
    }
  ],
  "asset": {
    "extras": {
      "author": "PreyK (https://sketchfab.com/krisitof)",
      "license": "CC-BY-4.0 (http://creativecommons.org/licenses/by/4.0/)",
      "source": "https://sketchfab.com/3d-models/joint-scan-v2-c91b6896fa41446c96feb09ed0002a3a",
      "title": "Joint scan (v2)"
    },
    "generator": "Sketchfab-12.66.0",
    "version": "2.0"
  },
  "bufferViews": [
    {
      "buffer": 0,
      "byteLength": 3048,
      "name": "floatBufferViews",
      "target": 34963
    },
    {
      "buffer": 0,
      "byteLength": 7296,
      "byteOffset": 3048,
      "byteStride": 8,
      "name": "floatBufferViews",
      "target": 34962
    },
    {
      "buffer": 0,
      "byteLength": 5472,
      "byteOffset": 10344,
      "byteStride": 12,
      "name": "floatBufferViews",
      "target": 34962
    }
  ],
  "buffers": [
    {
      "byteLength": 15816,
      "uri": "scene.bin"
    }
  ],
  "extensionsUsed": [
    "KHR_materials_unlit"
  ],
  "images": [
    {
      "uri": "textures/SimplygonMaterial_baseColor.png"
    }
  ],
  "materials": [
    {
      "extensions": {
        "KHR_materials_unlit": {}
      },
      "name": "SimplygonMaterial",
      "pbrMetallicRoughness": {
        "baseColorTexture": {
          "index": 0
        },
        "metallicFactor": 0.0
      }
    }
  ],
  "meshes": [
    {
      "name": "Simplygon_Proxy_5153e068-431a-4114-9fa9-ebc27b8ea276_SimplygonMaterial_0",
      "primitives": [
        {
          "attributes": {
            "NORMAL": 1,
            "POSITION": 0,
            "TEXCOORD_0": 2,
            "TEXCOORD_1": 3,
            "TEXCOORD_2": 4,
            "TEXCOORD_3": 5
          },
          "indices": 6,
          "material": 0,
          "mode": 4
        }
      ]
    }
  ],
  "nodes": [
    {
      "children": [
        1
      ],
      "matrix": [
        1.0,
        0.0,
        0.0,
        0.0,
        0.0,
        2.220446049250313e-16,
        -1.0,
        0.0,
        0.0,
        1.0,
        2.220446049250313e-16,
        0.0,
        0.0,
        0.0,
        0.0,
        1.0
      ],
      "name": "Sketchfab_model"
    },
    {
      "children": [
        2
      ],
      "matrix": [
        1.0,
        0.0,
        0.0,
        0.0,
        0.0,
        0.0,
        1.0,
        0.0,
        0.0,
        -1.0,
        0.0,
        0.0,
        0.0,
        0.0,
        0.0,
        1.0
      ],
      "name": "jspp_LOD1.fbx"
    },
    {
      "children": [
        3
      ],
      "name": "RootNode"
    },
    {
      "children": [
        4
      ],
      "name": "Simplygon_Proxy_5153e068-431a-4114-9fa9-ebc27b8ea276"
    },
    {
      "mesh": 0,
      "name": "Simplygon_Proxy_5153e068-431a-4114-9fa9-ebc27b8ea276_SimplygonMaterial_0"
    }
  ],
  "samplers": [
    {
      "magFilter": 9729,
      "minFilter": 9987,
      "wrapS": 10497,
      "wrapT": 10497
    }
  ],
  "scene": 0,
  "scenes": [
    {
      "name": "Sketchfab_Scene",
      "nodes": [
        0
      ]
    }
  ],
  "textures": [
    {
      "sampler": 0,
      "source": 0
    }
  ]
}
